# Blender 4.2.0
# www.blender.org
mtllib empty.mtl
g CornellBox-Empty-CO_CornellBox-Empty-CO
v -1.010000 0.000000 0.990000
v 1.000000 0.000000 0.990000
v 1.000000 -0.000000 -1.040000
v -0.990000 -0.000000 -1.040000
v -1.020000 1.990000 0.990000
v -1.020000 1.990000 -1.040000
v 1.000000 1.990000 -1.040000
v 1.000000 1.990000 0.990000
v -0.990000 -0.000000 -1.040000
v 1.000000 -0.000000 -1.040000
v 1.000000 1.990000 -1.040000
v -1.020000 1.990000 -1.040000
v 1.000000 -0.000000 -1.040000
v 1.000000 0.000000 0.990000
v 1.000000 1.990000 0.990000
v 1.000000 1.990000 -1.040000
v -1.010000 0.000000 0.990000
v -0.990000 -0.000000 -1.040000
v -1.020000 1.990000 -1.040000
v -1.020000 1.990000 0.990000
v -0.240000 1.980000 0.160000
v -0.240000 1.980000 -0.220000
v 0.230000 1.980000 -0.220000
v 0.230000 1.980000 0.160000
vn -0.0000 1.0000 -0.0000
vn -0.0000 -1.0000 -0.0000
vn -0.0000 -0.0000 1.0000
vn -1.0000 -0.0000 -0.0000
vn 0.9999 0.0100 0.0049
s 0
g CornellBox-Empty-CO_floor
usemtl floor
f 1//1 2//1 3//1 4//1
g CornellBox-Empty-CO_ceiling
usemtl ceiling
f 5//2 6//2 7//2 8//2
g CornellBox-Empty-CO_backWall
usemtl backWall
f 9//3 10//3 11//3 12//3
g CornellBox-Empty-CO_rightWall
usemtl rightWall
f 13//4 14//4 15//4 16//4
g CornellBox-Empty-CO_leftWall
usemtl leftWall
f 17//5 18//5 19//5 20//5
g CornellBox-Empty-CO_light
usemtl light
f 21//2 22//2 23//2 24//2
